<?xml version="1.0" standalone="no"?>
<!DOCTYPE svg PUBLIC "-//W3C//DTD SVG 20010904//EN"
 "http://www.w3.org/TR/2001/REC-SVG-20010904/DTD/svg10.dtd">
<svg version="1.0" xmlns="http://www.w3.org/2000/svg"
 width="140.000000pt" height="140.000000pt" viewBox="0 0 140.000000 140.000000"
 preserveAspectRatio="xMidYMid meet">
<metadata>
Created by potrace 1.14, written by Peter Selinger 2001-2017
</metadata>
<g transform="translate(0.000000,140.000000) scale(0.100000,-0.100000)"
fill="#000000" stroke="none">
<path d="M60 1385 c0 -13 78 -15 640 -15 562 0 640 2 640 15 0 13 -78 15 -640
15 -562 0 -640 -2 -640 -15z"/>
<path d="M129 1333 c-1 -11 -1 -116 0 -131 1 -7 6 -10 11 -7 6 3 10 32 10 63
l1 57 31 -63 c17 -35 36 -61 42 -59 6 2 22 26 36 54 35 72 41 74 37 16 -2 -29
-1 -57 4 -64 11 -19 21 28 17 87 -4 67 -25 64 -64 -10 l-32 -59 -27 54 c-26
51 -41 69 -57 69 -5 0 -8 -3 -9 -7z"/>
<path d="M440 1265 l0 -72 65 0 c36 0 65 4 65 9 0 4 -25 8 -56 8 -52 0 -55 1
-52 23 3 19 10 23 58 27 60 6 43 20 -20 17 -29 -1 -35 2 -35 18 0 17 7 20 53
20 28 0 52 3 52 8 0 9 -2 9 -72 12 l-58 3 0 -73z"/>
<path d="M678 1280 c-5 -90 -5 -89 63 -86 72 3 95 25 70 65 -6 9 -6 22 -1 31
15 29 -5 42 -68 45 l-60 3 -4 -58z m107 16 c0 -15 -8 -19 -38 -21 -41 -1 -52
7 -43 31 9 24 81 15 81 -10z m8 -48 c9 -27 -6 -38 -49 -38 -40 0 -44 2 -44 25
0 23 4 25 44 25 27 0 46 -5 49 -12z"/>
<path d="M937 1334 c-4 -4 -7 -37 -7 -74 l0 -66 60 -1 c33 0 63 3 66 8 3 5
-20 9 -50 9 l-56 0 3 48 c4 52 -4 88 -16 76z"/>
<path d="M1162 1266 l3 -70 63 -2 c75 -2 84 14 10 18 -47 3 -53 6 -54 26 -1
20 3 22 55 22 35 0 51 3 42 9 -7 5 -33 8 -58 7 -39 -2 -44 1 -41 19 3 17 11
20 52 21 28 0 51 5 53 10 2 6 -25 10 -62 10 l-66 0 3 -70z"/>
<path d="M60 580 l0 -580 640 0 640 0 0 580 0 580 -640 0 -640 0 0 -580z"/>
</g>
</svg>
